<svg width="1274" height="638" viewBox="0 0 1274 638" fill="none" xmlns="http://www.w3.org/2000/svg">
<g clip-path="url(#clip0)">
<path d="M1191.72 76.1933L1140.69 88.918C1139.33 89.2554 1138.17 90.1168 1137.45 91.3125C1136.73 92.5083 1136.52 93.9405 1136.86 95.2941L1154.67 166.745C1155.01 168.098 1155.87 169.262 1157.06 169.981C1158.26 170.699 1159.69 170.913 1161.05 170.576L1212.08 157.851C1213.44 157.514 1214.6 156.652 1215.32 155.457C1216.04 154.261 1216.25 152.829 1215.91 151.475L1198.1 80.0244C1197.76 78.6709 1196.9 77.5068 1195.7 76.7883C1194.51 76.0698 1193.08 75.8558 1191.72 76.1933ZM1159.77 165.472L1141.96 94.0216L1193 81.2969L1210.81 152.748L1159.77 165.472Z" fill="#DBF3E4"/>
<path d="M1154.71 101.684L1189.59 92.9864L1188.32 87.8827L1150.89 97.2163C1150.21 97.385 1149.63 97.8157 1149.27 98.4136C1148.91 99.0115 1148.8 99.7276 1148.97 100.404L1151.94 112.321L1157.05 111.049L1154.71 101.684Z" fill="#DBF3E4"/>
<path d="M1159.8 122.099L1154.7 123.371L1155.97 128.475L1166.18 125.93L1163.63 115.723L1158.53 116.995L1159.8 122.099Z" fill="#DBF3E4"/>
<path d="M1190.42 114.464L1185.32 115.736L1186.59 120.84L1196.8 118.295L1194.25 108.088L1189.15 109.36L1190.42 114.464Z" fill="#DBF3E4"/>
<path d="M1175.11 118.281L1170.01 119.554L1171.28 124.657L1181.49 122.113L1178.94 111.905L1173.84 113.178L1175.11 118.281Z" fill="#DBF3E4"/>
<path d="M1163.62 137.409L1158.52 138.682L1159.79 143.785L1170 141.24L1167.45 131.033L1162.35 132.306L1163.62 137.409Z" fill="#DBF3E4"/>
<path d="M1194.24 129.775L1189.14 131.047L1190.41 136.151L1200.62 133.606L1198.07 123.398L1192.97 124.671L1194.24 129.775Z" fill="#DBF3E4"/>
<path d="M1178.93 133.592L1173.83 134.864L1175.1 139.968L1185.31 137.423L1182.76 127.216L1177.66 128.488L1178.93 133.592Z" fill="#DBF3E4"/>
<path d="M1167.44 152.72L1162.33 153.992L1163.61 159.096L1173.81 156.551L1171.27 146.344L1166.16 147.616L1167.44 152.72Z" fill="#DBF3E4"/>
<path d="M1198.06 145.085L1192.95 146.358L1194.23 151.461L1204.43 148.916L1201.89 138.709L1196.79 139.981L1198.06 145.085Z" fill="#DBF3E4"/>
<path d="M1182.75 148.903L1177.64 150.176L1178.92 155.28L1189.12 152.735L1186.58 142.527L1181.47 143.8L1182.75 148.903Z" fill="#DBF3E4"/>
</g>
<path d="M132.293 52.8595L124.652 66.0764M121.864 55.6475L135.081 63.2885L121.864 55.6475Z" stroke="#DBF3E4" stroke-width="4" stroke-linecap="round" stroke-linejoin="round"/>
<path d="M126.716 32.0006L108.465 36.8795L107.794 76.1688L95.7904 62.6163L90.5759 64.0103" stroke="#DBF3E4" stroke-width="4" stroke-linecap="round" stroke-linejoin="round"/>
<path d="M935.944 44.3527L942.962 36.6072C943.291 36.7873 943.645 36.919 944.012 36.9983C946.128 37.4453 948.208 36.1 948.671 33.9883C949.127 31.869 947.791 29.7942 945.682 29.3388C945.311 29.2605 944.931 29.2361 944.552 29.2665L941.382 19.3433C943.071 18.3203 943.758 16.1761 942.913 14.3469C942.007 12.3852 939.686 11.5386 937.722 12.4532C936.863 12.8528 936.216 13.5218 935.836 14.3122L925.649 12.1328C925.612 10.3725 924.387 8.79762 922.594 8.405C920.486 7.94335 918.386 9.2767 917.916 11.3871C917.671 12.4862 917.914 13.5808 918.5 14.4431L911.481 22.1907C909.842 21.3041 907.757 21.691 906.551 23.1984C905.198 24.888 905.471 27.3444 907.159 28.7011C907.928 29.3127 908.901 29.6111 909.883 29.5367L913.053 39.4584C911.459 40.4303 910.739 42.4269 911.436 44.2237C912.218 46.2387 914.491 47.2246 916.498 46.4384C917.504 46.0443 918.257 45.2827 918.662 44.3683L928.787 46.5344C928.776 47.6242 929.213 48.7108 930.088 49.4884C931.699 50.9203 934.179 50.7777 935.616 49.1601C936.846 47.7898 936.934 45.8055 935.944 44.3527V44.3527ZM913.041 27.4953C913.399 26.8371 913.561 26.0908 913.508 25.3448L936.026 18.0616C936.413 18.6936 936.973 19.2011 937.64 19.5242L932.608 42.6473C931.87 42.6671 931.139 42.8931 930.509 43.3216L913.041 27.4953ZM941.022 32.3489C940.784 33.4295 941.022 34.5019 941.592 35.3531L934.564 43.11C934.518 43.0854 934.472 43.0618 934.425 43.0392L939.458 19.9143C939.507 19.9128 939.556 19.9099 939.606 19.9066L942.784 29.8526C941.916 30.3948 941.258 31.2716 941.022 32.3488L941.022 32.3489ZM935.457 16.2917L912.943 23.5736C912.915 23.5282 912.886 23.4831 912.856 23.4387L919.88 15.6862C920.194 15.8543 920.53 15.9782 920.878 16.0546C922.675 16.4482 924.458 15.5384 925.243 13.9514L935.448 16.1345C935.45 16.1869 935.453 16.2393 935.456 16.2918L935.457 16.2917ZM918.998 42.7758C918.997 42.293 918.907 41.8148 918.732 41.3655C918.098 39.7305 916.489 38.7706 914.827 38.8887L911.655 28.9621C911.7 28.9345 911.744 28.9062 911.788 28.8766L929.26 44.7067C929.217 44.7855 929.177 44.8648 929.14 44.9456L918.998 42.7758V42.7758Z" fill="#DBF3E4"/>
<path d="M35.5526 219L15 280.665L62.4348 296.475L82.9874 234.81L35.5526 219ZM38.7151 225.324L76.6629 237.972L59.2723 290.15L21.3245 277.503L38.7151 225.324ZM41.8776 231.649L37.1347 245.879L65.5956 255.365L70.3385 241.135L41.8776 231.649ZM45.0401 237.973L64.014 244.297L62.4331 249.041L43.4592 242.717L45.0401 237.973ZM37.9255 251.413L36.3445 256.157L41.088 257.738L42.669 252.994L37.9255 251.413ZM47.4124 254.575L45.8315 259.319L50.575 260.9L52.1559 256.156L47.4124 254.575ZM56.8994 257.737L55.3184 262.481L60.0619 264.062L61.6429 259.318L56.8994 257.737ZM34.7636 260.9L33.1826 265.644L37.9261 267.225L39.507 262.481L34.7636 260.9ZM44.2505 264.062L42.6695 268.806L47.413 270.387L48.994 265.643L44.2505 264.062ZM53.7375 267.224L52.1565 271.968L56.9 273.549L58.4809 268.805L53.7375 267.224ZM31.6016 270.387L30.0207 275.131L34.7641 276.712L36.3451 271.968L31.6016 270.387ZM41.0886 273.549L39.5076 278.293L44.2511 279.874L45.832 275.13L41.0886 273.549ZM50.5755 276.711L48.9946 281.454L53.738 283.035L55.319 278.292L50.5755 276.711Z" fill="#DBF3E4"/>
<g clip-path="url(#clip1)">
<path d="M101.609 494.778L137.917 582.985L64.4103 613.241L28.1031 525.034L101.609 494.778ZM98.5837 487.427L25.0775 517.683C23.128 518.486 21.5772 520.03 20.7661 521.976C19.955 523.922 19.9501 526.11 20.7525 528.06L57.0597 616.267C57.8622 618.217 59.4062 619.767 61.3521 620.579C63.298 621.39 65.4864 621.394 67.4359 620.592L140.942 590.336C142.892 589.534 144.443 587.99 145.254 586.044C146.065 584.098 146.07 581.909 145.267 579.96L108.96 491.752C108.158 489.803 106.613 488.252 104.668 487.441C102.722 486.63 100.533 486.625 98.5837 487.427Z" fill="#DBF3E4"/>
<path d="M67.8718 590.325L75.2224 587.3L78.248 594.65L70.8974 597.676L67.8718 590.325Z" fill="#DBF3E4"/>
<path d="M111.976 572.172L119.327 569.146L122.352 576.497L115.002 579.522L111.976 572.172Z" fill="#DBF3E4"/>
<path d="M60.3081 571.95L67.6587 568.925L70.6843 576.275L63.3337 579.301L60.3081 571.95Z" fill="#DBF3E4"/>
<path d="M104.412 553.797L111.762 550.771L114.788 558.122L107.437 561.147L104.412 553.797Z" fill="#DBF3E4"/>
<path d="M52.7443 553.572L60.0949 550.547L63.1205 557.897L55.7699 560.923L52.7443 553.572Z" fill="#DBF3E4"/>
<path d="M89.9243 581.25L97.2749 578.224L100.301 585.575L92.9499 588.601L89.9243 581.25Z" fill="#DBF3E4"/>
<path d="M82.3599 562.873L89.7105 559.847L92.7361 567.198L85.3855 570.224L82.3599 562.873Z" fill="#DBF3E4"/>
<path d="M74.796 544.497L82.1466 541.471L85.1722 548.822L77.8216 551.848L74.796 544.497Z" fill="#DBF3E4"/>
<path d="M96.8478 535.42L104.198 532.394L107.224 539.745L99.8734 542.771L96.8478 535.42Z" fill="#DBF3E4"/>
<path d="M43.6677 531.522L95.122 510.343L99.6604 521.369L48.2061 542.548L43.6677 531.522Z" fill="#DBF3E4"/>
</g>
<path d="M1117.11 515.939L1262.99 536.159" stroke="#DBF3E4" stroke-width="9" stroke-linecap="round" stroke-linejoin="round"/>
<path d="M1200.16 453.11L1179.94 598.99" stroke="#DBF3E4" stroke-width="9" stroke-linecap="round" stroke-linejoin="round"/>
<path d="M1234.94 470.321L1255.89 498.004" stroke="#DBF3E4" stroke-width="9" stroke-linecap="round" stroke-linejoin="round"/>
<path d="M1259.26 473.691L1231.57 494.634" stroke="#DBF3E4" stroke-width="9" stroke-linecap="round" stroke-linejoin="round"/>
<path d="M1150.41 454.474L1145.92 486.891" stroke="#DBF3E4" stroke-width="9" stroke-linecap="round" stroke-linejoin="round"/>
<path d="M1131.95 468.436L1164.37 472.929" stroke="#DBF3E4" stroke-width="9" stroke-linecap="round" stroke-linejoin="round"/>
<path d="M1234.18 565.207L1234.26 565.218" stroke="#DBF3E4" stroke-width="9" stroke-linecap="round" stroke-linejoin="round"/>
<path d="M1229.69 597.624L1229.77 597.635" stroke="#DBF3E4" stroke-width="9" stroke-linecap="round" stroke-linejoin="round"/>
<path d="M1118.47 565.688L1150.89 570.182" stroke="#DBF3E4" stroke-width="9" stroke-linecap="round" stroke-linejoin="round"/>
<defs>
<clipPath id="clip0">
<rect width="94.6775" height="94.6775" fill="white" transform="translate(1119 88.9043) rotate(-13.9999)"/>
</clipPath>
<clipPath id="clip1">
<rect width="127.183" height="127.183" fill="white" transform="translate(0 519.409) rotate(-22.3726)"/>
</clipPath>
</defs>
</svg>
